#!OML:ASF E:\inclinewalkrobotboard\Project 1\Capture day 1\Session 1\subject1.ASF
:FULLY-SPECIFIED
:DEGREES
160
root 7.22524 17.8974 27.7147 -165.86 6.27466 178.607
lowerback 2.9725 2.74665 -10.4179
upperback 4.13679 3.94415 -1.86498
thorax 2.12743 1.87988 3.81916
lowerneck -6.38267 -0.345428 -3.90671
upperneck 19.3271 -2.58889 7.94736
head 7.07642 -1.27543 2.98188
rclavicle 3.02153e-014 3.10104e-014
rhumerus -26.77 -15.2238 -85.1058
rradius 27.7523
rwrist 8.93391
rhand -13.5166 -36.3902
rfingers 7.12502
rthumb 12.5952 -65.9905
lclavicle 3.02153e-014 3.10104e-014
lhumerus -27.9272 11.3111 80.5074
lradius 17.299
lwrist -26.9482
lhand -24.4551 -21.0981
lfingers 7.12502
lthumb 2.0378 8.8719
rfemur -22.147 0.989301 18.9419
rtibia 57.2945
rfoot 6.76478 -8.22424
rtoes -20.5811
lfemur -41.6839 -5.18311 -20.2443
ltibia 38.0531
lfoot -25.2757 -1.46245
ltoes -35.3896
161
root 7.20299 17.9934 27.4725 -166.239 5.93014 178.288
lowerback 3.1934 2.53546 -10.7091
upperback 4.07286 3.64208 -1.99899
thorax 1.97582 1.73981 3.83608
lowerneck -5.91504 -0.392181 -3.47634
upperneck 18.8938 -2.65754 7.81426
head 6.85314 -1.30306 2.85572
rclavicle 1.15295e-014 -3.65764e-014
rhumerus -28.5088 -16.761 -84.145
rradius 27.5425
rwrist 9.05545
rhand -13.2457 -37.2314
rfingers 7.12502
rthumb 12.8564 -66.8154
lclavicle 1.15295e-014 -3.65764e-014
lhumerus -27.2064 8.4867 81.5965
lradius 18.2508
lwrist -25.5592
lhand -24.9929 -21.5429
lfingers 7.12502
lthumb 1.51843 8.43145
rfemur -25.4248 0.514172 18.8711
rtibia 61.972
rfoot 3.38886 -8.33441
rtoes -20.0586
lfemur -39.2636 -5.59854 -20.954
ltibia 36.277
lfoot -25.3924 -1.63759
ltoes -35.5331
162
root 7.17978 18.0884 27.2344 -166.608 5.49677 178.096
lowerback 3.44316 2.51376 -10.6669
upperback 3.87807 3.57413 -2.2239
thorax 1.65638 1.73487 3.56268
lowerneck -4.86714 -0.57055 -2.70689
upperneck 18.2539 -2.99041 7.80367
head 6.47629 -1.45478 2.69363
rclavicle -5.56597e-015 -4.13472e-014
rhumerus -30.8613 -19.0062 -82.7922
rradius 27.4199
rwrist 9.48836
rhand -13.014 -38.2551
rfingers 7.12502
rthumb 13.0797 -67.825
lclavicle -5.56597e-015 -4.13472e-014
lhumerus -26.3702 5.72337 82.3803
lradius 18.9332
lwrist -25.1381
lhand -25.5272 -21.4143
lfingers 7.12502
lthumb 1.00242 8.56312
rfemur -28.7099 0.19732 18.9265
rtibia 65.8077
rfoot 0.390161 -7.82034
rtoes -22.2441
lfemur -36.8981 -6.0195 -21.5101
ltibia 34.5675
lfoot -25.481 -1.74332
ltoes -35.7348
163
root 7.15388 18.1797 26.9961 -166.918 5.12973 177.932
lowerback 3.57767 1.6448 -11.2819
upperback 4.20842 2.40607 -1.65382
thorax 2.05592 1.09879 4.54043
lowerneck -6.04473 -0.100751 -3.96744
upperneck 18.3203 -2.05806 7.77288
head 6.65733 -1.02946 2.96739
rclavicle 1.11319e-014 -1.51076e-014
rhumerus -31.1644 -18.3573 -81.5552
rradius 26.6784
rwrist 10.2076
rhand -13.347 -37.827
rfingers 7.12502
rthumb 12.7587 -67.4171
lclavicle 1.11319e-014 -1.51076e-014
lhumerus -25.0115 7.76424 82.9687
lradius 19.6906
lwrist -26.097
lhand -25.809 -20.9023
lfingers 7.12502
lthumb 0.730209 9.07621
rfemur -31.9822 -0.0165059 18.9535
rtibia 68.9229
rfoot -2.42976 -7.10347
rtoes -24.0473
lfemur -34.5639 -6.31308 -22.0746
ltibia 32.8082
lfoot -25.4834 -1.8695
ltoes -36.1398
164
root 7.12713 18.2657 26.7543 -167.179 4.80542 177.871
lowerback 3.62072 1.87753 -10.9244
upperback 3.9439 2.69731 -1.97886
thorax 1.72947 1.28226 3.98625
lowerneck -4.72113 -0.469648 -3.00562
upperneck 17.4692 -2.72745 8.01705
head 6.19137 -1.32499 2.8274
rclavicle -1.59028e-015 2.3059e-014
rhumerus -34.1336 -21.5799 -79.5577
rradius 26.6524
rwrist 11.2733
rhand -14.0421 -36.9815
rfingers 7.12502
rthumb 12.0885 -66.6123
lclavicle -1.59028e-015 2.3059e-014
lhumerus -24.4548 4.7432 83.6037
lradius 20.9018
lwrist -25.4006
lhand -25.7783 -20.0224
lfingers 7.12502
lthumb 0.759873 9.95604
rfemur -35.0623 -0.114256 19.0017
rtibia 70.4708
rfoot -4.68599 -6.88167
rtoes -26.3518
lfemur -32.2758 -6.55279 -22.5198
ltibia 31.0987
lfoot -25.6447 -1.96427
ltoes -36.6558
165
root 7.10526 18.3452 26.5162 -167.409 4.51752 177.871
lowerback 3.66384 1.45835 -11.0696
upperback 4.02126 2.11985 -1.66998
thorax 1.85832 0.972389 4.40883
lowerneck -4.89258 -0.221035 -3.84416
upperneck 17.0149 -2.27104 8.48282
head 6.05907 -1.1059 3.14726
rclavicle 8.74653e-015 8.74653e-015
rhumerus -35.3363 -22.3706 -77.8619
rradius 25.9235
rwrist 12.4268
rhand -14.29 -37.5785
rfingers 7.12502
rthumb 11.8495 -67.2233
lclavicle 8.74653e-015 8.74653e-015
lhumerus -23.519 4.60047 84.3514
lradius 22.1698
lwrist -24.5064
lhand -25.9746 -19.7167
lfingers 7.12502
lthumb 0.570257 10.2623
rfemur -38.0637 -0.0571424 19.0446
rtibia 71.4637
rfoot -7.09852 -7.02041
rtoes -25.1548
lfemur -30.0977 -6.75761 -22.8413
ltibia 29.5114
lfoot -25.8645 -2.03641
ltoes -36.9362
166
root 7.0863 18.4192 26.2804 -167.711 4.27492 177.947
lowerback 3.81295 1.7293 -10.5786
upperback 3.60231 2.42014 -1.9416
thorax 1.30666 1.16953 3.8299
lowerneck -4.67012 -0.491747 -2.15564
upperneck 17.6308 -2.84956 7.70004
head 6.23063 -1.36646 2.57328
rclavicle 3.06128e-014 6.2816e-014
rhumerus -38.5885 -25.6238 -75.2236
rradius 25.2856
rwrist 14.2119
rhand -14.0111 -38.5222
rfingers 7.12502
rthumb 12.1184 -68.1512
lclavicle 3.06128e-014 6.2816e-014
lhumerus -23.3796 1.05372 85.035
lradius 23.5568
lwrist -22.1436
lhand -26.3027 -20.1571
lfingers 7.12502
lthumb 0.253385 9.82246
rfemur -40.9228 0.0852946 19.1506
rtibia 71.8091
rfoot -9.16845 -7.51265
rtoes -23.9273
lfemur -27.9024 -6.9232 -23.0511
ltibia 27.9702
lfoot -26.0125 -2.05871
ltoes -36.9157
167
root 7.0652 18.4826 26.0453 -168.001 4.01195 178.007
lowerback 3.90775 1.48323 -10.4999
upperback 3.53968 2.05721 -1.75596
thorax 1.23328 0.986095 3.98979
lowerneck -4.71634 -0.362249 -2.20886
upperneck 17.6776 -2.65804 7.63098
head 6.24256 -1.28214 2.57332
rclavicle -3.97569e-016 -2.38542e-015
rhumerus -40.3908 -27.3172 -72.7791
rradius 24.275
rwrist 16.1224
rhand -13.758 -38.5939
rfingers 7.12502
rthumb 12.3624 -68.2084
lclavicle -3.97569e-016 -2.38542e-015
lhumerus -22.875 -0.223377 85.7542
lradius 25.1301
lwrist -19.9968
lhand -26.7215 -20.6003
lfingers 7.12502
lthumb -0.151084 9.3794
rfemur -43.6269 0.147339 19.2031
rtibia 71.3734
rfoot -10.8106 -8.18762
rtoes -24.2504
lfemur -25.7803 -7.18075 -23.302
ltibia 26.5039
lfoot -26.1335 -2.03779
ltoes -36.964
168
root 7.0429 18.5336 25.8089 -168.33 3.80308 177.861
lowerback 3.94185 0.723501 -11.104
upperback 3.87997 1.04078 -1.11013
thorax 1.7107 0.420118 5.04016
lowerneck -6.15155 -1.09858 -3.11925
upperneck 18.1614 -1.44753 7.0773
head 6.59527 0.00693829 2.72675
rclavicle -2.18663e-015 5.56597e-015
rhumerus -40.448 -26.931 -71.0762
rradius 23.1287
rwrist 17.5422
rhand -13.7868 -38.3424
rfingers 7.12502
rthumb 12.3347 -67.9586
lclavicle -2.18663e-015 5.56597e-015
lhumerus -21.8211 0.836397 86.584
lradius 26.7658
lwrist -18.3867
lhand -27.4998 -20.5262
lfingers 7.12502
lthumb -0.902846 9.45166
rfemur -46.1276 0.112584 18.9375
rtibia 70.2489
rfoot -12.3323 -8.49409
rtoes -24.6851
lfemur -23.6011 -7.49881 -23.8334
ltibia 25.0034
lfoot -26.2606 -1.98509
ltoes -37.1327
169
root 7.02346 18.5769 25.5741 -168.718 3.63519 177.626
lowerback 4.09205 0.659697 -11.221
upperback 3.68926 0.905887 -1.10164
thorax 1.44675 0.366188 5.11493
lowerneck -5.73352 -1.18239 -2.73847
upperneck 18.28 -1.53987 6.85079
head 6.56094 -0.0187724 2.58496
rclavicle 4.17448e-015 4.92986e-014
rhumerus -42.9676 -28.4038 -68.4313
rradius 22.4097
rwrist 18.985
rhand -13.8722 -38.1079
rfingers 7.12502
rthumb 12.2523 -67.729
lclavicle 4.17448e-015 4.92986e-014
lhumerus -21.7277 -1.1064 87.2876
lradius 28.4472
lwrist -16.4257
lhand -28.4326 -20.1955
lfingers 7.12502
lthumb -1.80372 9.77659
rfemur -48.3769 0.0859554 18.4975
rtibia 68.496
rfoot -13.7237 -8.42913
rtoes -25.1051
lfemur -21.4282 -7.74337 -24.4606
ltibia 23.5991
lfoot -26.4739 -1.94236
ltoes -37.5317
170
root 7.0085 18.6118 25.338 -169.042 3.49509 177.431
lowerback 4.16693 0.364054 -11.5024
upperback 3.73043 0.490182 -0.869591
thorax 1.5205 0.141882 5.52904
lowerneck -6.39982 -1.06039 -2.9034
upperneck 18.7509 -1.33405 6.61869
head 6.81906 0.0636075 2.56194
rclavicle -1.98785e-016 1.35174e-014
rhumerus -44.3909 -30.5645 -65.3612
rradius 20.9264
rwrist 22.2145
rhand -14.1061 -37.4046
rfingers 7.12502
rthumb 12.0268 -67.039
lclavicle -1.98785e-016 1.35174e-014
lhumerus -21.1 -1.80797 87.884
lradius 29.89
lwrist -14.9511
lhand -28.8728 -20.0372
lfingers 7.12502
lthumb -2.22887 9.9309
rfemur -50.3992 0.140918 18.0471
rtibia 66.1068
rfoot -14.8322 -8.21157
rtoes -26.2577
lfemur -19.4013 -7.83325 -25.0086
ltibia 22.3211
lfoot -26.649 -1.97705
ltoes -38.0993
